<mxfile host="app.diagrams.net" modified="2020-09-12T13:44:46.682Z" agent="5.0 (Windows NT 10.0; Win64; x64) AppleWebKit/537.36 (KHTML, like Gecko) Chrome/85.0.4183.102 Safari/537.36" etag="t7meAKHy6UVvBiTnhre_" version="13.6.10" type="github">
  <diagram id="2SXRxxm86idbElm0OgQt" name="Page-1">
    <mxGraphModel dx="868" dy="482" grid="1" gridSize="10" guides="1" tooltips="1" connect="1" arrows="1" fold="1" page="1" pageScale="1" pageWidth="850" pageHeight="1100" math="0" shadow="0">
      <root>
        <mxCell id="0" />
        <mxCell id="1" parent="0" />
        <mxCell id="l5TrknLabHkmF807Puyr-13" style="edgeStyle=orthogonalEdgeStyle;rounded=0;orthogonalLoop=1;jettySize=auto;html=1;" parent="1" source="l5TrknLabHkmF807Puyr-2" edge="1">
          <mxGeometry relative="1" as="geometry">
            <mxPoint x="710" y="120" as="targetPoint" />
          </mxGeometry>
        </mxCell>
        <mxCell id="l5TrknLabHkmF807Puyr-2" value="Master" style="rounded=1;whiteSpace=wrap;html=1;" parent="1" vertex="1">
          <mxGeometry x="365" y="230" width="120" height="60" as="geometry" />
        </mxCell>
        <mxCell id="l5TrknLabHkmF807Puyr-15" style="edgeStyle=orthogonalEdgeStyle;rounded=0;orthogonalLoop=1;jettySize=auto;html=1;entryX=0.5;entryY=0;entryDx=0;entryDy=0;" parent="1" source="l5TrknLabHkmF807Puyr-3" target="l5TrknLabHkmF807Puyr-2" edge="1">
          <mxGeometry relative="1" as="geometry" />
        </mxCell>
        <mxCell id="l5TrknLabHkmF807Puyr-3" value="Slave1" style="rounded=1;whiteSpace=wrap;html=1;" parent="1" vertex="1">
          <mxGeometry x="80" y="70" width="120" height="60" as="geometry" />
        </mxCell>
        <mxCell id="l5TrknLabHkmF807Puyr-7" style="edgeStyle=orthogonalEdgeStyle;rounded=0;orthogonalLoop=1;jettySize=auto;html=1;entryX=0;entryY=1;entryDx=0;entryDy=0;" parent="1" source="l5TrknLabHkmF807Puyr-5" target="l5TrknLabHkmF807Puyr-2" edge="1">
          <mxGeometry relative="1" as="geometry">
            <Array as="points">
              <mxPoint x="300" y="440" />
              <mxPoint x="300" y="260" />
              <mxPoint x="365" y="260" />
            </Array>
          </mxGeometry>
        </mxCell>
        <mxCell id="l5TrknLabHkmF807Puyr-5" value="Slave4" style="rounded=1;whiteSpace=wrap;html=1;" parent="1" vertex="1">
          <mxGeometry x="80" y="410" width="120" height="60" as="geometry" />
        </mxCell>
        <mxCell id="l5TrknLabHkmF807Puyr-8" style="edgeStyle=orthogonalEdgeStyle;rounded=0;orthogonalLoop=1;jettySize=auto;html=1;entryX=1;entryY=1;entryDx=0;entryDy=0;" parent="1" source="l5TrknLabHkmF807Puyr-6" target="l5TrknLabHkmF807Puyr-2" edge="1">
          <mxGeometry relative="1" as="geometry">
            <Array as="points">
              <mxPoint x="425" y="430" />
              <mxPoint x="425" y="290" />
            </Array>
          </mxGeometry>
        </mxCell>
        <mxCell id="l5TrknLabHkmF807Puyr-6" value="Slave3" style="rounded=1;whiteSpace=wrap;html=1;" parent="1" vertex="1">
          <mxGeometry x="670" y="400" width="120" height="60" as="geometry" />
        </mxCell>
        <mxCell id="l5TrknLabHkmF807Puyr-14" value="Slave2" style="rounded=1;whiteSpace=wrap;html=1;" parent="1" vertex="1">
          <mxGeometry x="650" y="60" width="120" height="60" as="geometry" />
        </mxCell>
      </root>
    </mxGraphModel>
  </diagram>
</mxfile>
